<svg width="320" height="106" viewBox="0 0 320 106" fill="none" xmlns="http://www.w3.org/2000/svg">
<g clip-path="url(#clip0_263_55)">
<path d="M133.56 85.42V19.27H159C163.218 19.1778 167.392 20.133 171.15 22.05C174.515 23.7934 177.309 26.4658 179.2 29.75C181.132 33.1804 182.116 37.0635 182.05 41C182.139 45.0943 181.197 49.1452 179.31 52.78C177.519 56.1322 174.764 58.8701 171.4 60.64C167.614 62.567 163.407 63.519 159.16 63.41H146.24V85.41L133.56 85.42ZM158.18 51.85C160.197 51.8914 162.192 51.4237 163.98 50.49C165.642 49.6262 167.028 48.313 167.98 46.7C168.952 45.0032 169.446 43.075 169.41 41.12C169.449 39.2273 168.961 37.361 168 35.73C167.05 34.1624 165.659 32.9101 164 32.13C162.183 31.2562 160.186 30.8212 158.17 30.86H146.24V51.86L158.18 51.85Z" fill="#230082"/>
<path d="M223.17 36.08H233.56V85.42H223.12L222.28 79.63C220.452 81.7659 218.206 83.5049 215.68 84.74C213.038 86.0046 210.139 86.6412 207.21 86.6C202.854 86.6218 198.579 85.4232 194.87 83.14C191.106 80.8523 188.004 77.6227 185.87 73.77C183.648 69.8007 182.503 65.3189 182.55 60.77C182.499 56.2168 183.654 51.7313 185.9 47.77C188.04 43.9217 191.141 40.6935 194.9 38.4C198.603 36.1344 202.869 34.9562 207.21 35C210.18 34.9556 213.12 35.599 215.8 36.88C218.339 38.1343 220.592 39.8975 222.42 42.06L223.17 36.08ZM215.35 73.34C217.488 72.126 219.254 70.3525 220.46 68.21C221.722 65.9611 222.367 63.4186 222.33 60.84C222.362 58.2494 221.717 55.6953 220.46 53.43C219.26 51.2655 217.493 49.468 215.35 48.23C213.194 46.9687 210.737 46.3155 208.24 46.34C205.785 46.325 203.373 46.9766 201.259 48.2252C199.146 49.4739 197.411 51.2728 196.24 53.43C195.038 55.7133 194.41 58.2548 194.41 60.835C194.41 63.4152 195.038 65.9567 196.24 68.24C197.408 70.3736 199.137 72.1475 201.24 73.37C203.404 74.5795 205.841 75.2146 208.32 75.2146C210.799 75.2146 213.236 74.5795 215.4 73.37L215.35 73.34Z" fill="#230082"/>
<path d="M257.5 85.42H245.5V47.1H238.5V36H245.5V21.35H257.5V36H268.31V47.1H257.5V85.42Z" fill="#230082"/>
<path d="M310.27 37.52C313.217 39.2091 315.584 41.7505 317.06 44.81C318.733 48.3792 319.552 52.2893 319.45 56.23V85.42H307.45V58.35C307.45 54.4567 306.503 51.4567 304.61 49.35C303.607 48.2635 302.376 47.4129 301.004 46.8596C299.633 46.3063 298.156 46.0639 296.68 46.15C294.537 46.1282 292.427 46.6806 290.57 47.75C288.734 48.7814 287.208 50.2869 286.153 52.1093C285.098 53.9317 284.551 56.0041 284.57 58.11V85.42H272.73V21.62H284.62V41.4C286.634 39.4182 289.01 37.8428 291.62 36.76C294.267 35.6158 297.117 35.0172 300 35C303.586 34.916 307.13 35.7857 310.27 37.52Z" fill="#230082"/>
<path d="M0 4.32001V101.55C-1.52217e-06 102.118 0.112069 102.681 0.329794 103.206C0.54752 103.73 0.866623 104.207 1.26883 104.608C1.67104 105.01 2.14846 105.328 2.67374 105.544C3.19902 105.761 3.76185 105.871 4.33 105.87H23.33C23.8982 105.871 24.461 105.761 24.9863 105.544C25.5115 105.328 25.989 105.01 26.3912 104.608C26.7934 104.207 27.1125 103.73 27.3302 103.206C27.5479 102.681 27.66 102.118 27.66 101.55V82.81C27.6574 81.6634 27.2 80.5646 26.3882 79.7547C25.5765 78.9448 24.4767 78.49 23.33 78.49H22.6C21.4533 78.49 20.3535 78.9448 19.5418 79.7547C18.73 80.5646 18.2726 81.6634 18.27 82.81V92.18C18.27 92.7482 18.1579 93.3107 17.9402 93.8355C17.7225 94.3603 17.4034 94.837 17.0012 95.2383C16.599 95.6395 16.1215 95.9575 15.5963 96.174C15.071 96.3906 14.5082 96.5013 13.94 96.5H13.56C12.9918 96.5013 12.429 96.3906 11.9037 96.174C11.3785 95.9575 10.901 95.6395 10.4988 95.2383C10.0966 94.837 9.77752 94.3603 9.55979 93.8355C9.34207 93.3107 9.23 92.7482 9.23 92.18V13.69C9.23265 12.5434 9.69001 11.4446 10.5018 10.6347C11.3135 9.82483 12.4133 9.37001 13.56 9.37001H92.16C93.3067 9.37001 94.4065 9.82483 95.2182 10.6347C96.03 11.4446 96.4874 12.5434 96.49 13.69V92.18C96.49 92.7482 96.3779 93.3107 96.1602 93.8355C95.9425 94.3603 95.6234 94.837 95.2212 95.2383C94.819 95.6395 94.3415 95.9575 93.8163 96.174C93.291 96.3906 92.7282 96.5013 92.16 96.5H49.53C48.9618 96.5013 48.399 96.3906 47.8737 96.174C47.3485 95.9575 46.871 95.6395 46.4688 95.2383C46.0666 94.837 45.7475 94.3603 45.5298 93.8355C45.3121 93.3107 45.2 92.7482 45.2 92.18C45.2026 91.0334 45.66 89.9346 46.4718 89.1247C47.2835 88.3148 48.3833 87.86 49.53 87.86H83.12C83.6882 87.8613 84.251 87.7506 84.7763 87.534C85.3015 87.3175 85.779 86.9995 86.1812 86.5983C86.5834 86.197 86.9025 85.7203 87.1202 85.1955C87.3379 84.6707 87.45 84.1082 87.45 83.54V22.33C87.4513 21.761 87.3402 21.1974 87.1231 20.6714C86.906 20.1455 86.5871 19.6676 86.1847 19.2653C85.7824 18.863 85.3045 18.5441 84.7786 18.3269C84.2526 18.1098 83.689 17.9987 83.12 18H22.58C22.0118 17.9987 21.449 18.1095 20.9237 18.326C20.3985 18.5425 19.921 18.8605 19.5188 19.2618C19.1166 19.663 18.7975 20.1397 18.5798 20.6645C18.3621 21.1893 18.25 21.7519 18.25 22.32V64.52C18.2526 65.6667 18.71 66.7655 19.5218 67.5753C20.3335 68.3852 21.4333 68.84 22.58 68.84H23.31C24.4567 68.84 25.5565 68.3852 26.3682 67.5753C27.18 66.7655 27.6374 65.6667 27.64 64.52V31.7C27.64 31.1293 27.753 30.5643 27.9726 30.0375C28.1922 29.5108 28.514 29.0328 28.9194 28.6311C29.3248 28.2294 29.8058 27.912 30.3345 27.6973C30.8633 27.4826 31.4293 27.3747 32 27.38H73.73C74.2982 27.3787 74.861 27.4895 75.3863 27.706C75.9115 27.9225 76.389 28.2405 76.7912 28.6418C77.1934 29.043 77.5125 29.5197 77.7302 30.0445C77.9479 30.5693 78.06 31.1319 78.06 31.7V74.17C78.06 74.7382 77.9479 75.3007 77.7302 75.8255C77.5125 76.3503 77.1934 76.827 76.7912 77.2283C76.389 77.6295 75.9115 77.9475 75.3863 78.164C74.861 78.3806 74.2982 78.4913 73.73 78.49H41C39.8533 78.49 38.7535 78.9448 37.9418 79.7547C37.13 80.5646 36.6726 81.6634 36.67 82.81V101.55C36.67 102.118 36.7821 102.681 36.9998 103.206C37.2175 103.73 37.5366 104.207 37.9388 104.608C38.341 105.01 38.8185 105.328 39.3437 105.544C39.869 105.761 40.4319 105.871 41 105.87H101.54C102.686 105.87 103.785 105.415 104.595 104.605C105.405 103.795 105.86 102.696 105.86 101.55V4.32001C105.86 3.17601 105.406 2.07871 104.598 1.26884C103.79 0.45897 102.694 0.00265973 101.55 1.15751e-05H4.33C3.76185 -0.00130359 3.19902 0.109466 2.67374 0.325977C2.14846 0.542489 1.67104 0.860489 1.26883 1.26177C0.866623 1.66305 0.54752 2.13973 0.329794 2.66451C0.112069 3.18929 -1.52217e-06 3.75186 0 4.32001Z" fill="#230082"/>
<path d="M36.6801 41V64.88C36.6801 65.9409 37.1015 66.9583 37.8516 67.7084C38.6018 68.4586 39.6192 68.88 40.6801 68.88H64.2001C65.2609 68.88 66.2783 68.4586 67.0285 67.7084C67.7786 66.9583 68.2001 65.9409 68.2001 64.88V41C68.2001 39.9391 67.7786 38.9217 67.0285 38.1716C66.2783 37.4214 65.2609 37 64.2001 37H40.6301C39.5779 37.0132 38.5733 37.4404 37.8339 38.1891C37.0945 38.9378 36.68 39.9477 36.6801 41ZM57.0601 59.46H46.9001C46.6768 59.46 46.4557 59.416 46.2495 59.3306C46.0432 59.2452 45.8558 59.1199 45.698 58.9621C45.5401 58.8042 45.4149 58.6168 45.3295 58.4106C45.244 58.2043 45.2001 57.9832 45.2001 57.76V48.11C45.2001 47.8868 45.244 47.6657 45.3295 47.4594C45.4149 47.2532 45.5401 47.0658 45.698 46.9079C45.8558 46.7501 46.0432 46.6248 46.2495 46.5394C46.4557 46.454 46.6768 46.41 46.9001 46.41H57.0601C57.2833 46.41 57.5044 46.454 57.7106 46.5394C57.9169 46.6248 58.1043 46.7501 58.2621 46.9079C58.42 47.0658 58.5452 47.2532 58.6306 47.4594C58.7161 47.6657 58.7601 47.8868 58.7601 48.11V57.76C58.7601 58.2109 58.5809 58.6433 58.2621 58.9621C57.9433 59.2809 57.5109 59.46 57.0601 59.46Z" fill="#230082"/>
</g>
<defs>
<clipPath id="clip0_263_55">
<rect width="319.45" height="105.87" fill="white"/>
</clipPath>
</defs>
</svg>
