<svg xmlns="http://www.w3.org/2000/svg" viewBox="0 0 319.45 105.87"><defs><style>.cls-1{fill:#001f3f;}</style></defs><g id="Layer_2" data-name="Layer 2"><g id="Layer_1-2" data-name="Layer 1"><path class="cls-1" d="M133.56,85.42V19.27H159a25.51,25.51,0,0,1,12.15,2.78,19.8,19.8,0,0,1,8.05,7.7A22.17,22.17,0,0,1,182.05,41a24.42,24.42,0,0,1-2.74,11.78,19,19,0,0,1-7.91,7.86,25.54,25.54,0,0,1-12.24,2.77H146.24v22Zm24.62-33.57a12,12,0,0,0,5.8-1.36,10,10,0,0,0,4-3.79,10.83,10.83,0,0,0,1.43-5.58A10.2,10.2,0,0,0,168,35.73a9.31,9.31,0,0,0-4-3.6,12.88,12.88,0,0,0-5.83-1.27H146.24v21Z"/><path class="cls-1" d="M223.17,36.08h10.39V85.42H223.12l-.84-5.79a20.6,20.6,0,0,1-6.6,5.11,19,19,0,0,1-8.47,1.86,23.32,23.32,0,0,1-12.34-3.46,25.33,25.33,0,0,1-9-9.37,26.06,26.06,0,0,1-3.32-13,25.77,25.77,0,0,1,3.35-13,25.49,25.49,0,0,1,9-9.37A23.14,23.14,0,0,1,207.21,35a19.25,19.25,0,0,1,8.59,1.88,20.64,20.64,0,0,1,6.62,5.18Zm-7.82,37.26a13.53,13.53,0,0,0,5.11-5.13,14.63,14.63,0,0,0,1.87-7.37,14.89,14.89,0,0,0-1.87-7.41,13.65,13.65,0,0,0-5.11-5.2,13.81,13.81,0,0,0-7.11-1.89,13.56,13.56,0,0,0-12,7.09,15.9,15.9,0,0,0,0,14.81,13.35,13.35,0,0,0,5,5.13,14.51,14.51,0,0,0,14.16,0Z"/><path class="cls-1" d="M257.5,85.42h-12V47.1h-7V36h7V21.35l12,0V36h10.81V47.1H257.5Z"/><path class="cls-1" d="M310.27,37.52a16.83,16.83,0,0,1,6.79,7.29,25.36,25.36,0,0,1,2.39,11.42V85.42h-12V58.35q0-5.84-2.84-9a10,10,0,0,0-7.93-3.2,12,12,0,0,0-6.11,1.6,11.76,11.76,0,0,0-6,10.36V85.42H272.73V21.62h11.89V41.4a22,22,0,0,1,7-4.64A21.44,21.44,0,0,1,300,35,20.26,20.26,0,0,1,310.27,37.52Z"/><path class="cls-1" d="M0,4.32v97.23a4.32,4.32,0,0,0,4.33,4.32h19a4.32,4.32,0,0,0,4.33-4.32V82.81a4.33,4.33,0,0,0-4.33-4.32h-.73a4.33,4.33,0,0,0-4.33,4.32v9.37a4.32,4.32,0,0,1-4.33,4.32h-.38a4.32,4.32,0,0,1-4.33-4.32V13.69a4.33,4.33,0,0,1,4.33-4.32H92.16a4.33,4.33,0,0,1,4.33,4.32V92.18a4.32,4.32,0,0,1-4.33,4.32H49.53a4.32,4.32,0,0,1-4.33-4.32h0a4.33,4.33,0,0,1,4.33-4.32H83.12a4.32,4.32,0,0,0,4.33-4.32V22.33A4.32,4.32,0,0,0,83.12,18H22.58a4.32,4.32,0,0,0-4.33,4.32V64.52a4.33,4.33,0,0,0,4.33,4.32h.73a4.33,4.33,0,0,0,4.33-4.32V31.7A4.32,4.32,0,0,1,32,27.38H73.73a4.32,4.32,0,0,1,4.33,4.32V74.17a4.32,4.32,0,0,1-4.33,4.32H41a4.33,4.33,0,0,0-4.33,4.32v18.74A4.32,4.32,0,0,0,41,105.87h60.54a4.32,4.32,0,0,0,4.32-4.32V4.32A4.32,4.32,0,0,0,101.55,0H4.33A4.32,4.32,0,0,0,0,4.32Z"/><path class="cls-1" d="M36.68,41V64.88a4,4,0,0,0,4,4H64.2a4,4,0,0,0,4-4V41a4,4,0,0,0-4-4H40.63A4,4,0,0,0,36.68,41ZM57.06,59.46H46.9a1.7,1.7,0,0,1-1.7-1.7V48.11a1.7,1.7,0,0,1,1.7-1.7H57.06a1.7,1.7,0,0,1,1.7,1.7v9.65A1.7,1.7,0,0,1,57.06,59.46Z"/></g></g></svg>